<svg xmlns="http://www.w3.org/2000/svg" viewBox="0 0 34.5 9.37"><defs><style>.cls-1{fill:#5d383a;}.cls-2{fill:#e22727;}.cls-3{fill:#fff;}</style></defs><title>Ресурс 1</title><g id="Слой_2" data-name="Слой 2"><g id="Слой_1-2" data-name="Слой 1"><rect class="cls-1" y="1.53" width="34.5" height="7.84" rx="0.98" ry="0.98"/><rect class="cls-2" width="34.5" height="9.06" rx="1.12" ry="1.12"/><path class="cls-3" d="M8,3.27c.09,0,.12,0,.12.12V5.68c0,.09,0,.12-.12.12h-.2c-.09,0-.12,0-.12-.12v-1H6.64v1c0,.09,0,.12-.12.12h-.2c-.09,0-.12,0-.12-.12V3.39c0-.09,0-.12.12-.12h.2c.09,0,.12,0,.12.12v.92H7.7V3.39c0-.09,0-.12.12-.12Z"/><path class="cls-3" d="M10.74,5.68c0,.08,0,.12-.08.12h-.19c-.15,0-.19,0-.22-.11l-.16-.46h-1l-.17.46c0,.09-.07.11-.22.11H8.55c-.08,0-.11,0-.08-.12l.89-2.31a.13.13,0,0,1,.15-.1H9.7c.09,0,.12,0,.15.1Zm-1-1.57a2.26,2.26,0,0,1-.08-.37V3.68h0a1.3,1.3,0,0,1-.08.43l-.27.75H10Z"/><path class="cls-3" d="M12.43,3.27c.09,0,.12,0,.12.12V5.68c0,.09,0,.12-.12.12h-.2c-.09,0-.12,0-.12-.12V4.83a2.45,2.45,0,0,1-.53,0c-.64,0-.93-.3-.93-.87V3.39c0-.09,0-.12.12-.12H11c.09,0,.12,0,.12.12V4q0,.46.5.46a2.16,2.16,0,0,0,.51-.06v-1c0-.09,0-.12.12-.12Z"/><path class="cls-3" d="M15.15,5.68c0,.08,0,.12-.08.12h-.19c-.15,0-.19,0-.22-.11l-.16-.46h-1l-.17.46c0,.09-.07.11-.22.11H13c-.08,0-.11,0-.08-.12l.89-2.31a.13.13,0,0,1,.15-.1h.19c.09,0,.12,0,.15.1Zm-1-1.57A2.26,2.26,0,0,1,14,3.74V3.68h0a1.3,1.3,0,0,1-.08.43l-.27.75h.73Z"/><path class="cls-3" d="M16.72,3.27c.09,0,.12,0,.12.12v.17c0,.09,0,.12-.12.12H16.1v2c0,.09,0,.12-.12.12h-.21c-.09,0-.12,0-.12-.12v-2H15c-.09,0-.12,0-.12-.12V3.39c0-.09,0-.12.12-.12Z"/><path class="cls-3" d="M17.26,5.8c-.09,0-.12,0-.12-.12V3.39c0-.09,0-.12.12-.12h.2c.09,0,.12,0,.12.12v.76h.62A.77.77,0,0,1,19,5a.77.77,0,0,1-.84.83Zm.32-1.23v.82h.58A.38.38,0,0,0,18.57,5a.37.37,0,0,0-.41-.41Z"/><path class="cls-3" d="M22,3.27c.09,0,.12,0,.12.12V5.68c0,.09,0,.12-.12.12h-.2c-.09,0-.12,0-.12-.12v-1a4,4,0,0,1,0-.42c0-.1,0-.23.07-.4h0a4.06,4.06,0,0,1-.36.68l-.82,1.24a.13.13,0,0,1-.12.06h-.21c-.09,0-.12,0-.12-.12V3.39c0-.09,0-.12.12-.12h.2c.09,0,.12,0,.12.12v1c0,.18,0,.32,0,.42s0,.23-.07.41h0a4,4,0,0,1,.37-.7l.8-1.22a.13.13,0,0,1,.12-.06Z"/><path class="cls-3" d="M24.08,3.27c.09,0,.12,0,.12.12v.17c0,.09,0,.12-.12.12h-1v2c0,.09,0,.12-.12.12h-.2c-.09,0-.12,0-.12-.12V3.39c0-.09,0-.12.12-.12Z"/><path class="cls-3" d="M25.57,3.27a.77.77,0,0,1,.84.83.77.77,0,0,1-.84.82h-.62v.76c0,.09,0,.12-.12.12h-.2c-.09,0-.12,0-.12-.12V3.39c0-.09,0-.12.12-.12Zm0,1.23a.37.37,0,0,0,.41-.41.38.38,0,0,0-.41-.41h-.58V4.5Z"/><path class="cls-3" d="M28.65,3.27c.07,0,.09,0,.06.12l-1.06,2.3c0,.09-.07.11-.2.11h-.24c-.08,0-.1,0-.06-.12l.31-.62L26.6,3.39c0-.08,0-.12.06-.12h.21c.16,0,.17,0,.23.11l.59,1.18.54-1.18c0-.1.06-.11.22-.11Z"/></g></g></svg>